<svg width="211" height="34" viewBox="0 0 211 34" fill="none" xmlns="http://www.w3.org/2000/svg">
<path fill-rule="evenodd" clip-rule="evenodd" d="M16.3446 0.0910645C19.5448 0.0910645 22.3262 0.739367 24.6942 2.00918C27.0621 3.279 28.8716 5.11139 30.171 7.53315C31.4758 9.89597 32.1255 12.7892 32.1255 16.1593C32.1255 16.3683 32.1255 16.7808 32.0933 17.4291C32.0933 18.0774 32.0933 18.49 32.002 18.699H7.63001C7.68907 20.3545 8.07567 21.8601 8.81666 23.1889C9.55764 24.5176 10.653 25.5517 12.0759 26.3179C13.5257 27.0572 15.3352 27.4377 17.4346 27.4377C19.271 27.4377 20.812 27.2019 22.1437 26.6983C23.4753 26.1946 24.5707 25.5785 25.462 24.898C26.3211 24.1908 26.9708 23.5103 27.3896 22.921L31.0301 27.8556C30.2301 28.9164 29.226 29.8916 28.0393 30.722C26.8258 31.5793 25.3439 32.2276 23.5397 32.6723C21.7624 33.1438 19.5717 33.4117 16.9675 33.4117C13.531 33.4117 10.5403 32.7044 7.99513 31.3168C5.45 29.8969 3.49552 27.952 2.07261 25.3802C0.681921 22.8406 0 19.8295 0 16.4326C0 13.3625 0.649705 10.6139 1.92764 8.16538C3.2002 5.68468 5.06877 3.73442 7.49577 2.31994C9.94424 0.88403 12.9082 0.150001 16.3446 0.150001V0.0910645ZM16.4628 5.96329C14.4761 5.96329 12.8813 6.34906 11.6678 7.11524C10.4221 7.85462 9.53616 8.73867 8.94552 9.80489C8.35488 10.839 8.0005 11.7819 7.90922 12.6714H24.4633C24.4633 11.8462 24.1679 10.93 23.6042 9.86383C23.0994 8.82976 22.2725 7.91356 21.1181 7.14738C19.9637 6.34906 18.4226 5.96865 16.5004 5.96865H16.4681L16.4628 5.96329Z" fill="#DDFC14"/>
<path d="M94.7336 0.0910839C96.5968 0.0910839 98.2882 0.300041 99.7379 0.739387C101.22 1.15194 102.46 1.62344 103.438 2.15922C104.415 2.68965 105.064 3.10221 105.392 3.42904L101.424 9.15661C101.247 8.9798 100.86 8.68511 100.296 8.29935C99.7648 7.88679 99.0506 7.53317 98.1325 7.17955C97.2465 6.85272 96.1458 6.67591 94.9054 6.67591C93.3644 6.67591 91.8824 7.08847 90.4917 7.88679C89.0688 8.7119 87.9144 9.86385 87.0284 11.3694C86.1425 12.8482 85.6968 14.6163 85.6968 16.6576C85.6968 18.699 86.1425 20.4671 87.0284 21.9726C87.9144 23.4782 89.0742 24.6301 90.4917 25.4553C91.9146 26.2804 93.3644 26.6661 94.9054 26.6661C96.7418 26.6661 98.1915 26.3715 99.3191 25.7821C100.474 25.1606 101.215 24.7212 101.542 24.4533L105.424 30.1809C105.129 30.4488 104.479 30.8292 103.497 31.3329C102.519 31.8043 101.274 32.2758 99.7648 32.6616C98.2828 33.0742 96.5968 33.2831 94.6692 33.2831C91.528 33.2831 88.6876 32.6348 86.1425 31.3329C83.5973 30.0041 81.5516 28.1128 80.0105 25.6321C78.5017 23.1192 77.7285 20.1403 77.7285 16.6255C77.7285 13.1107 78.4963 10.0996 80.0105 7.6189C81.5516 5.1382 83.592 3.24687 86.1425 1.95027C88.7198 0.648303 91.5603 0 94.6692 0L94.7282 0.0910839H94.7336Z" fill="#DDFC14"/>
<path fill-rule="evenodd" clip-rule="evenodd" d="M126.542 0.0910645C129.86 0.0910645 132.792 0.830451 135.311 2.30387C137.856 3.75049 139.842 5.7597 141.265 8.26718C142.715 10.8068 143.456 13.6411 143.456 16.8023C143.456 19.9634 142.715 22.7977 141.265 25.3106C139.815 27.7913 137.829 29.7415 135.311 31.215C132.765 32.6348 129.834 33.3688 126.542 33.3688C123.251 33.3688 120.292 32.6616 117.688 31.215C115.111 29.7683 113.097 27.7913 111.647 25.3106C110.198 22.7977 109.457 19.9634 109.457 16.8023C109.457 13.6411 110.198 10.8068 111.647 8.26718C113.097 5.72755 115.111 3.75049 117.688 2.30387C120.265 0.825093 123.224 0.0910645 126.542 0.0910645ZM126.542 6.97058C124.706 6.97058 123.079 7.41528 121.683 8.27254C120.319 9.1298 119.256 10.3085 118.483 11.7873C117.742 13.2339 117.355 14.8895 117.355 16.7487C117.355 18.6079 117.742 20.2635 118.483 21.7422C119.25 23.1889 120.319 24.3408 121.683 25.1981C123.073 26.0553 124.674 26.4679 126.542 26.4679C128.411 26.4679 130.005 26.0553 131.342 25.1981C132.706 24.3408 133.743 23.221 134.51 21.7422C135.251 20.2956 135.638 18.64 135.638 16.7487C135.638 14.8574 135.251 13.2339 134.51 11.7873C133.769 10.3085 132.706 9.1298 131.342 8.27254C129.979 7.41528 128.379 6.97058 126.542 6.97058Z" fill="#DDFC14"/>
<path fill-rule="evenodd" clip-rule="evenodd" d="M191.277 0.0910645C193.467 0.0910645 195.395 0.476831 197.022 1.24301C198.649 2.00918 199.921 2.89859 200.904 3.87372C201.913 4.87565 202.531 5.73291 202.74 6.47229L202.826 3.87372L210.913 1.00726V32.4312H202.826V26.6125C202.617 27.2341 202.026 28.0592 201.049 29.1522C200.104 30.213 198.799 31.1882 197.108 32.0776C195.481 32.9348 193.526 33.3795 191.277 33.3795C188.313 33.3795 185.682 32.6723 183.308 31.2846C180.94 29.8648 179.104 27.9199 177.74 25.4392C176.376 22.9263 175.694 20.0652 175.694 16.7862C175.694 13.5072 176.376 10.6407 177.74 8.13323C179.104 5.62039 180.967 3.67548 183.308 2.28779C185.676 0.867956 188.313 0.133927 191.277 0.133927V0.10178V0.0910645ZM193.355 6.70268C191.695 6.70268 190.127 7.11524 188.645 7.9725C187.223 8.79761 186.041 9.94955 185.15 11.4551C184.264 12.9607 183.818 14.7341 183.818 16.7433C183.818 18.7525 184.264 20.526 185.15 22.0316C186.036 23.5371 187.223 24.6891 188.645 25.5142C190.095 26.3393 191.668 26.7251 193.355 26.7251C195.159 26.7251 196.732 26.3125 198.123 25.4552C199.545 24.598 200.641 23.446 201.441 21.9726C202.268 20.4671 202.687 18.7258 202.687 16.7165C202.687 14.7073 202.273 12.9928 201.441 11.5194C200.641 10.0138 199.545 8.82976 198.123 8.00465C196.732 7.14739 195.159 6.70268 193.355 6.70268Z" fill="#DDFC14"/>
<path d="M58.0118 0.0910512C60.1435 0.0910512 62.2161 0.535755 64.2028 1.39301C66.2163 2.25027 67.8433 3.63796 69.1212 5.55608C70.426 7.44741 71.0757 9.89596 71.0757 12.9392V32.4312H62.8121V14.4448C62.8121 11.6105 62.1302 9.54234 60.7663 8.21359C59.4347 6.85269 57.6843 6.1776 55.5848 6.1776C54.1619 6.1776 52.8303 6.56336 51.5577 7.35633C50.2851 8.15465 49.2166 9.21551 48.3897 10.5764C47.5897 11.9373 47.2031 13.5018 47.2031 15.2431V32.4312H38.9717V3.86835L47.2031 1.00189V6.29011C47.4393 5.43285 48.0622 4.51666 49.0394 3.57367C50.0757 2.59854 51.3483 1.80021 52.9215 1.11976C54.4894 0.439313 56.1808 0.0856934 58.0172 0.0856934L58.0118 0.0910512Z" fill="#DDFC14"/>
<path d="M168.091 0.0909984C169.54 0.0909984 170.872 0.299955 172.027 0.712512C173.181 1.12507 174.013 1.53762 174.486 1.92339L171.167 8.65824C170.84 8.24568 170.222 7.85992 169.272 7.47951C168.386 7.06695 167.258 6.85799 165.927 6.85799C164.268 6.85799 162.845 7.32949 161.69 8.30462C160.563 9.27975 159.704 10.4317 159.113 11.7872C158.522 13.1481 158.227 14.418 158.227 15.5699V32.4043H150.022V3.84151L158.227 0.975048V5.70069C158.463 5.17026 158.909 4.54875 159.5 3.84151C160.326 2.86638 161.454 2.00912 162.877 1.24294C164.327 0.444618 166.045 0.064209 168.058 0.064209L168.091 0.0963562V0.0909984Z" fill="#DDFC14"/>
</svg>
