<svg width="73" height="39" viewBox="0 0 73 39" fill="none" xmlns="http://www.w3.org/2000/svg">
<path d="M27.2402 6.93291C31.7053 2.56838 36.7753 0.725605 42.334 1.39873C44.2607 1.63088 46.0412 2.4608 47.3916 3.74052L47.6562 4.00224C48.7619 5.14796 49.9774 7.08267 49.5811 9.88506L49.5771 9.91338L49.5762 9.94267C49.5743 10.0175 49.5261 11.3885 48.5811 13.3958C47.7087 15.2497 45.8508 18.0513 41.9639 20.7278L41.957 20.7327C40.9592 21.4451 39.9211 22.0177 38.8711 22.4407L38.8574 22.4368L38.7002 22.5101L38.542 22.5726L38.5361 22.5862C36.1607 23.7008 32.3066 25.0897 27.1982 25.5354L26.6094 25.5872L26.7578 26.1595L27.2422 26.0335L26.7578 26.1604H26.7588V26.1624L26.7598 26.1644C26.7602 26.166 26.7602 26.1684 26.7607 26.1702C26.7618 26.1738 26.7634 26.1778 26.7646 26.1819C26.7672 26.1902 26.7698 26.1999 26.7734 26.2103L26.7793 26.2259C26.7811 26.2304 26.7815 26.2304 26.7812 26.2298L26.7803 26.2269L26.7832 26.2347C26.7849 26.2394 26.7876 26.2469 26.791 26.2561V26.2571C26.9441 26.6749 27.9838 29.2536 30.7949 30.3919C31.0316 30.5148 32.2164 31.0724 34.3057 31.0433C36.5271 31.0122 39.7377 30.3187 43.8848 27.7864L43.8877 27.7854L43.9072 27.7737C44.2008 27.5993 44.5 27.4158 44.8037 27.222L44.8027 27.221C44.8111 27.216 44.8215 27.2104 44.832 27.2034C45.6323 26.7397 46.592 26.0567 47.5244 25.3401L47.5234 25.3392C49.5037 23.8193 51.4415 22.1069 51.6738 21.9007C51.6809 21.8944 51.6859 21.8892 51.6895 21.886C51.691 21.8847 51.6925 21.8839 51.6934 21.8831L51.6953 21.8811L51.708 21.8694L51.7207 21.8567C55.4596 18.0742 55.3604 17.9661 59.0088 13.3431C62.9051 8.40669 64.0622 6.16357 65.7891 3.23564L65.79 3.23466C66.7177 1.65914 68.6913 1.04071 70.3857 1.80791H70.3867C72.3662 2.70389 73.1343 5.25209 71.9111 7.05791L71.8994 7.07451L71.8896 7.09209C69.5363 11.2554 67.6168 14.7662 62.9443 20.3714C58.2782 25.969 55.8064 27.8287 50.8838 31.4241C50.8738 31.4313 50.8664 31.4377 50.8662 31.4378H50.8652C47.0886 34.2544 43.3314 36.1439 39.7002 37.0667C36.9652 37.7615 34.2907 37.9149 31.7412 37.5306L31.2334 37.4466C30.2312 37.2653 29.3193 37.0116 28.5059 36.7249C25.7848 35.7667 24.1578 34.4295 23.8438 34.1575L23.8379 34.1458L23.7627 34.0862L23.748 34.0735L23.7422 34.0696C22.383 32.9995 21.275 31.6784 20.4482 30.138V30.137C20.0467 29.3905 19.7206 28.607 19.4766 27.8089L19.4727 27.7991L19.4404 27.6917L19.4395 27.6897L19.4346 27.6712V27.6702L19.3203 27.2522C19.2877 27.1234 19.2604 27.0053 19.2373 26.8997C19.1916 26.6901 19.1634 26.5261 19.1465 26.4202V26.4183C19.1462 26.4163 19.1458 26.4142 19.1455 26.4124V26.4114C19.145 26.4079 19.1449 26.4046 19.1445 26.4017C19.1437 26.3958 19.1431 26.3938 19.1426 26.3899V26.387L19.1006 25.9612L18.6729 25.9368C17.8188 25.8886 9.9137 25.5222 2.00781 19.0276L1.99023 19.013L1.97168 18.9993L1.82715 18.8958C1.12118 18.3611 0.652412 17.5664 0.53125 16.6917C0.401147 15.7542 0.680224 14.8042 1.2959 14.0872V14.0862C2.43692 12.7567 4.45441 12.5368 5.88672 13.5999L5.89551 13.6067L5.9043 13.6126C8.85963 15.6059 11.0672 16.8849 13.0986 17.7112C15.1397 18.5414 16.9849 18.9077 19.208 19.0999L19.6123 19.1341L19.7305 18.7464C19.9321 18.0806 20.128 17.5615 20.2549 17.2493L20.3564 17.0081C20.3764 16.962 20.3921 16.9272 20.4023 16.9046C20.4074 16.8934 20.4117 16.8854 20.4141 16.8802C20.4152 16.8777 20.4155 16.8754 20.416 16.8743L20.417 16.8733L20.4189 16.8685C21.4232 14.6635 23.6448 10.447 27.2402 6.93291ZM19.1396 26.3831C19.1399 26.3843 19.1394 26.3858 19.1396 26.387L19.1377 26.3792C19.138 26.3805 19.1393 26.3818 19.1396 26.3831ZM39.9805 7.5872C37.9104 7.27843 34.8175 8.13049 30.9238 12.8811C28.7952 15.4785 27.2749 18.2214 26.9365 18.8499L26.4219 19.806L27.4834 19.5755C32.1465 18.5628 35.8748 17.2111 38.54 15.5423L38.541 15.5433C41.1723 13.8965 42.0947 12.3369 42.415 11.4827L42.416 11.4817C42.7129 10.6862 42.6394 9.80405 42.2178 9.06572C41.8618 8.44254 41.2934 7.9769 40.623 7.74052C40.4776 7.68925 40.3291 7.65038 40.1787 7.62138L40.1777 7.62041L39.9805 7.5872Z" fill="#DDFC14" stroke="#BFDA11"/>
</svg>
